<svg width="250" height="250" viewBox="0 0 250 250" fill="none" xmlns="http://www.w3.org/2000/svg">
<g id="Frame 1">
<g id="darkGroup">
<path id="Polygon 3" d="M164.5 120.67C167.833 122.594 167.833 127.406 164.5 129.33L104.5 163.971C101.167 165.896 97 163.49 97 159.641L97 90.359C97 86.51 101.167 84.1044 104.5 86.0289L164.5 120.67Z" fill="#6E9FE7"/>
<path id="Polygon 2" d="M111.5 120.67C114.833 122.594 114.833 127.406 111.5 129.33L51.5 163.971C48.1667 165.896 44 163.49 44 159.641L44 90.359C44 86.51 48.1667 84.1044 51.5 86.0289L111.5 120.67Z" fill="#75C8F8"/>
</g>
<g id="lightGroup">
<path id="Polygon 1" d="M111.5 120.67C114.833 122.594 114.833 127.406 111.5 129.33L51.5 163.971C48.1667 165.896 44 163.49 44 159.641L44 90.359C44 86.51 48.1667 84.1044 51.5 86.0289L111.5 120.67Z" fill="#556D9C"/>
</g>
</g>
</svg>
